<?xml version="1.0" encoding="utf-8" standalone="no"?>
<!DOCTYPE svg PUBLIC "-//W3C//DTD SVG 1.1//EN"
  "http://www.w3.org/Graphics/SVG/1.1/DTD/svg11.dtd">
<svg height="432pt" version="1.1" viewBox="0 0 1080 432" width="1080pt" xmlns="http://www.w3.org/2000/svg" xmlns:xlink="http://www.w3.org/1999/xlink">
 <metadata>
  <rdf:RDF xmlns:cc="http://creativecommons.org/ns#" xmlns:dc="http://purl.org/dc/elements/1.1/" xmlns:rdf="http://www.w3.org/1999/02/22-rdf-syntax-ns#">
   <cc:Work>
    <dc:type rdf:resource="http://purl.org/dc/dcmitype/StillImage"/>
    <dc:date>2021-05-08T15:06:31.695524</dc:date>
    <dc:format>image/svg+xml</dc:format>
    <dc:creator>
     <cc:Agent>
      <dc:title>Matplotlib v3.4.1, https://matplotlib.org/</dc:title>
     </cc:Agent>
    </dc:creator>
   </cc:Work>
  </rdf:RDF>
 </metadata>
 <defs>
  <style type="text/css">*{stroke-linecap:butt;stroke-linejoin:round;}</style>
 </defs>
 <g id="figure_1">
  <g id="patch_1">
   <path d="M 0 432 
L 1080 432 
L 1080 0 
L 0 0 
z
" style="fill:none;"/>
  </g>
  <g id="axes_1">
   <g id="patch_2">
    <path d="M 135 378 
L 972 378 
L 972 51.84 
L 135 51.84 
z
" style="fill:#ffffff;"/>
   </g>
   <g id="matplotlib.axis_1">
    <g id="xtick_1">
     <g id="line2d_1">
      <defs>
       <path d="M 0 0 
L 0 3.5 
" id="m424051a0a5" style="stroke:#000000;stroke-width:0.8;"/>
      </defs>
      <g>
       <use style="stroke:#000000;stroke-width:0.8;" x="217.804813" xlink:href="#m424051a0a5" y="378"/>
      </g>
     </g>
     <g id="text_1">
      <!-- 11 08:50 -->
      <g transform="translate(195.443875 392.598437)scale(0.1 -0.1)">
       <defs>
        <path d="M 794 531 
L 1825 531 
L 1825 4091 
L 703 3866 
L 703 4441 
L 1819 4666 
L 2450 4666 
L 2450 531 
L 3481 531 
L 3481 0 
L 794 0 
L 794 531 
z
" id="DejaVuSans-31" transform="scale(0.015625)"/>
        <path id="DejaVuSans-20" transform="scale(0.015625)"/>
        <path d="M 2034 4250 
Q 1547 4250 1301 3770 
Q 1056 3291 1056 2328 
Q 1056 1369 1301 889 
Q 1547 409 2034 409 
Q 2525 409 2770 889 
Q 3016 1369 3016 2328 
Q 3016 3291 2770 3770 
Q 2525 4250 2034 4250 
z
M 2034 4750 
Q 2819 4750 3233 4129 
Q 3647 3509 3647 2328 
Q 3647 1150 3233 529 
Q 2819 -91 2034 -91 
Q 1250 -91 836 529 
Q 422 1150 422 2328 
Q 422 3509 836 4129 
Q 1250 4750 2034 4750 
z
" id="DejaVuSans-30" transform="scale(0.015625)"/>
        <path d="M 2034 2216 
Q 1584 2216 1326 1975 
Q 1069 1734 1069 1313 
Q 1069 891 1326 650 
Q 1584 409 2034 409 
Q 2484 409 2743 651 
Q 3003 894 3003 1313 
Q 3003 1734 2745 1975 
Q 2488 2216 2034 2216 
z
M 1403 2484 
Q 997 2584 770 2862 
Q 544 3141 544 3541 
Q 544 4100 942 4425 
Q 1341 4750 2034 4750 
Q 2731 4750 3128 4425 
Q 3525 4100 3525 3541 
Q 3525 3141 3298 2862 
Q 3072 2584 2669 2484 
Q 3125 2378 3379 2068 
Q 3634 1759 3634 1313 
Q 3634 634 3220 271 
Q 2806 -91 2034 -91 
Q 1263 -91 848 271 
Q 434 634 434 1313 
Q 434 1759 690 2068 
Q 947 2378 1403 2484 
z
M 1172 3481 
Q 1172 3119 1398 2916 
Q 1625 2713 2034 2713 
Q 2441 2713 2670 2916 
Q 2900 3119 2900 3481 
Q 2900 3844 2670 4047 
Q 2441 4250 2034 4250 
Q 1625 4250 1398 4047 
Q 1172 3844 1172 3481 
z
" id="DejaVuSans-38" transform="scale(0.015625)"/>
        <path d="M 750 794 
L 1409 794 
L 1409 0 
L 750 0 
L 750 794 
z
M 750 3309 
L 1409 3309 
L 1409 2516 
L 750 2516 
L 750 3309 
z
" id="DejaVuSans-3a" transform="scale(0.015625)"/>
        <path d="M 691 4666 
L 3169 4666 
L 3169 4134 
L 1269 4134 
L 1269 2991 
Q 1406 3038 1543 3061 
Q 1681 3084 1819 3084 
Q 2600 3084 3056 2656 
Q 3513 2228 3513 1497 
Q 3513 744 3044 326 
Q 2575 -91 1722 -91 
Q 1428 -91 1123 -41 
Q 819 9 494 109 
L 494 744 
Q 775 591 1075 516 
Q 1375 441 1709 441 
Q 2250 441 2565 725 
Q 2881 1009 2881 1497 
Q 2881 1984 2565 2268 
Q 2250 2553 1709 2553 
Q 1456 2553 1204 2497 
Q 953 2441 691 2322 
L 691 4666 
z
" id="DejaVuSans-35" transform="scale(0.015625)"/>
       </defs>
       <use xlink:href="#DejaVuSans-31"/>
       <use x="63.623047" xlink:href="#DejaVuSans-31"/>
       <use x="127.246094" xlink:href="#DejaVuSans-20"/>
       <use x="159.033203" xlink:href="#DejaVuSans-30"/>
       <use x="222.65625" xlink:href="#DejaVuSans-38"/>
       <use x="286.279297" xlink:href="#DejaVuSans-3a"/>
       <use x="319.970703" xlink:href="#DejaVuSans-35"/>
       <use x="383.59375" xlink:href="#DejaVuSans-30"/>
      </g>
     </g>
    </g>
    <g id="xtick_2">
     <g id="line2d_2">
      <g>
       <use style="stroke:#000000;stroke-width:0.8;" x="307.323529" xlink:href="#m424051a0a5" y="378"/>
      </g>
     </g>
     <g id="text_2">
      <!-- 11 09:00 -->
      <g transform="translate(284.962592 392.598437)scale(0.1 -0.1)">
       <defs>
        <path d="M 703 97 
L 703 672 
Q 941 559 1184 500 
Q 1428 441 1663 441 
Q 2288 441 2617 861 
Q 2947 1281 2994 2138 
Q 2813 1869 2534 1725 
Q 2256 1581 1919 1581 
Q 1219 1581 811 2004 
Q 403 2428 403 3163 
Q 403 3881 828 4315 
Q 1253 4750 1959 4750 
Q 2769 4750 3195 4129 
Q 3622 3509 3622 2328 
Q 3622 1225 3098 567 
Q 2575 -91 1691 -91 
Q 1453 -91 1209 -44 
Q 966 3 703 97 
z
M 1959 2075 
Q 2384 2075 2632 2365 
Q 2881 2656 2881 3163 
Q 2881 3666 2632 3958 
Q 2384 4250 1959 4250 
Q 1534 4250 1286 3958 
Q 1038 3666 1038 3163 
Q 1038 2656 1286 2365 
Q 1534 2075 1959 2075 
z
" id="DejaVuSans-39" transform="scale(0.015625)"/>
       </defs>
       <use xlink:href="#DejaVuSans-31"/>
       <use x="63.623047" xlink:href="#DejaVuSans-31"/>
       <use x="127.246094" xlink:href="#DejaVuSans-20"/>
       <use x="159.033203" xlink:href="#DejaVuSans-30"/>
       <use x="222.65625" xlink:href="#DejaVuSans-39"/>
       <use x="286.279297" xlink:href="#DejaVuSans-3a"/>
       <use x="319.970703" xlink:href="#DejaVuSans-30"/>
       <use x="383.59375" xlink:href="#DejaVuSans-30"/>
      </g>
     </g>
    </g>
    <g id="xtick_3">
     <g id="line2d_3">
      <g>
       <use style="stroke:#000000;stroke-width:0.8;" x="396.842246" xlink:href="#m424051a0a5" y="378"/>
      </g>
     </g>
     <g id="text_3">
      <!-- 11 09:10 -->
      <g transform="translate(374.481308 392.598437)scale(0.1 -0.1)">
       <use xlink:href="#DejaVuSans-31"/>
       <use x="63.623047" xlink:href="#DejaVuSans-31"/>
       <use x="127.246094" xlink:href="#DejaVuSans-20"/>
       <use x="159.033203" xlink:href="#DejaVuSans-30"/>
       <use x="222.65625" xlink:href="#DejaVuSans-39"/>
       <use x="286.279297" xlink:href="#DejaVuSans-3a"/>
       <use x="319.970703" xlink:href="#DejaVuSans-31"/>
       <use x="383.59375" xlink:href="#DejaVuSans-30"/>
      </g>
     </g>
    </g>
    <g id="xtick_4">
     <g id="line2d_4">
      <g>
       <use style="stroke:#000000;stroke-width:0.8;" x="486.360963" xlink:href="#m424051a0a5" y="378"/>
      </g>
     </g>
     <g id="text_4">
      <!-- 11 09:20 -->
      <g transform="translate(464.000025 392.598437)scale(0.1 -0.1)">
       <defs>
        <path d="M 1228 531 
L 3431 531 
L 3431 0 
L 469 0 
L 469 531 
Q 828 903 1448 1529 
Q 2069 2156 2228 2338 
Q 2531 2678 2651 2914 
Q 2772 3150 2772 3378 
Q 2772 3750 2511 3984 
Q 2250 4219 1831 4219 
Q 1534 4219 1204 4116 
Q 875 4013 500 3803 
L 500 4441 
Q 881 4594 1212 4672 
Q 1544 4750 1819 4750 
Q 2544 4750 2975 4387 
Q 3406 4025 3406 3419 
Q 3406 3131 3298 2873 
Q 3191 2616 2906 2266 
Q 2828 2175 2409 1742 
Q 1991 1309 1228 531 
z
" id="DejaVuSans-32" transform="scale(0.015625)"/>
       </defs>
       <use xlink:href="#DejaVuSans-31"/>
       <use x="63.623047" xlink:href="#DejaVuSans-31"/>
       <use x="127.246094" xlink:href="#DejaVuSans-20"/>
       <use x="159.033203" xlink:href="#DejaVuSans-30"/>
       <use x="222.65625" xlink:href="#DejaVuSans-39"/>
       <use x="286.279297" xlink:href="#DejaVuSans-3a"/>
       <use x="319.970703" xlink:href="#DejaVuSans-32"/>
       <use x="383.59375" xlink:href="#DejaVuSans-30"/>
      </g>
     </g>
    </g>
    <g id="xtick_5">
     <g id="line2d_5">
      <g>
       <use style="stroke:#000000;stroke-width:0.8;" x="575.879679" xlink:href="#m424051a0a5" y="378"/>
      </g>
     </g>
     <g id="text_5">
      <!-- 11 09:30 -->
      <g transform="translate(553.518742 392.598437)scale(0.1 -0.1)">
       <defs>
        <path d="M 2597 2516 
Q 3050 2419 3304 2112 
Q 3559 1806 3559 1356 
Q 3559 666 3084 287 
Q 2609 -91 1734 -91 
Q 1441 -91 1130 -33 
Q 819 25 488 141 
L 488 750 
Q 750 597 1062 519 
Q 1375 441 1716 441 
Q 2309 441 2620 675 
Q 2931 909 2931 1356 
Q 2931 1769 2642 2001 
Q 2353 2234 1838 2234 
L 1294 2234 
L 1294 2753 
L 1863 2753 
Q 2328 2753 2575 2939 
Q 2822 3125 2822 3475 
Q 2822 3834 2567 4026 
Q 2313 4219 1838 4219 
Q 1578 4219 1281 4162 
Q 984 4106 628 3988 
L 628 4550 
Q 988 4650 1302 4700 
Q 1616 4750 1894 4750 
Q 2613 4750 3031 4423 
Q 3450 4097 3450 3541 
Q 3450 3153 3228 2886 
Q 3006 2619 2597 2516 
z
" id="DejaVuSans-33" transform="scale(0.015625)"/>
       </defs>
       <use xlink:href="#DejaVuSans-31"/>
       <use x="63.623047" xlink:href="#DejaVuSans-31"/>
       <use x="127.246094" xlink:href="#DejaVuSans-20"/>
       <use x="159.033203" xlink:href="#DejaVuSans-30"/>
       <use x="222.65625" xlink:href="#DejaVuSans-39"/>
       <use x="286.279297" xlink:href="#DejaVuSans-3a"/>
       <use x="319.970703" xlink:href="#DejaVuSans-33"/>
       <use x="383.59375" xlink:href="#DejaVuSans-30"/>
      </g>
     </g>
    </g>
    <g id="xtick_6">
     <g id="line2d_6">
      <g>
       <use style="stroke:#000000;stroke-width:0.8;" x="665.398396" xlink:href="#m424051a0a5" y="378"/>
      </g>
     </g>
     <g id="text_6">
      <!-- 11 09:40 -->
      <g transform="translate(643.037458 392.598437)scale(0.1 -0.1)">
       <defs>
        <path d="M 2419 4116 
L 825 1625 
L 2419 1625 
L 2419 4116 
z
M 2253 4666 
L 3047 4666 
L 3047 1625 
L 3713 1625 
L 3713 1100 
L 3047 1100 
L 3047 0 
L 2419 0 
L 2419 1100 
L 313 1100 
L 313 1709 
L 2253 4666 
z
" id="DejaVuSans-34" transform="scale(0.015625)"/>
       </defs>
       <use xlink:href="#DejaVuSans-31"/>
       <use x="63.623047" xlink:href="#DejaVuSans-31"/>
       <use x="127.246094" xlink:href="#DejaVuSans-20"/>
       <use x="159.033203" xlink:href="#DejaVuSans-30"/>
       <use x="222.65625" xlink:href="#DejaVuSans-39"/>
       <use x="286.279297" xlink:href="#DejaVuSans-3a"/>
       <use x="319.970703" xlink:href="#DejaVuSans-34"/>
       <use x="383.59375" xlink:href="#DejaVuSans-30"/>
      </g>
     </g>
    </g>
    <g id="xtick_7">
     <g id="line2d_7">
      <g>
       <use style="stroke:#000000;stroke-width:0.8;" x="754.917112" xlink:href="#m424051a0a5" y="378"/>
      </g>
     </g>
     <g id="text_7">
      <!-- 11 09:50 -->
      <g transform="translate(732.556175 392.598437)scale(0.1 -0.1)">
       <use xlink:href="#DejaVuSans-31"/>
       <use x="63.623047" xlink:href="#DejaVuSans-31"/>
       <use x="127.246094" xlink:href="#DejaVuSans-20"/>
       <use x="159.033203" xlink:href="#DejaVuSans-30"/>
       <use x="222.65625" xlink:href="#DejaVuSans-39"/>
       <use x="286.279297" xlink:href="#DejaVuSans-3a"/>
       <use x="319.970703" xlink:href="#DejaVuSans-35"/>
       <use x="383.59375" xlink:href="#DejaVuSans-30"/>
      </g>
     </g>
    </g>
    <g id="xtick_8">
     <g id="line2d_8">
      <g>
       <use style="stroke:#000000;stroke-width:0.8;" x="844.435829" xlink:href="#m424051a0a5" y="378"/>
      </g>
     </g>
     <g id="text_8">
      <!-- 11 10:00 -->
      <g transform="translate(822.074891 392.598437)scale(0.1 -0.1)">
       <use xlink:href="#DejaVuSans-31"/>
       <use x="63.623047" xlink:href="#DejaVuSans-31"/>
       <use x="127.246094" xlink:href="#DejaVuSans-20"/>
       <use x="159.033203" xlink:href="#DejaVuSans-31"/>
       <use x="222.65625" xlink:href="#DejaVuSans-30"/>
       <use x="286.279297" xlink:href="#DejaVuSans-3a"/>
       <use x="319.970703" xlink:href="#DejaVuSans-30"/>
       <use x="383.59375" xlink:href="#DejaVuSans-30"/>
      </g>
     </g>
    </g>
    <g id="xtick_9">
     <g id="line2d_9">
      <g>
       <use style="stroke:#000000;stroke-width:0.8;" x="933.954545" xlink:href="#m424051a0a5" y="378"/>
      </g>
     </g>
     <g id="text_9">
      <!-- 11 10:10 -->
      <g transform="translate(911.593608 392.598437)scale(0.1 -0.1)">
       <use xlink:href="#DejaVuSans-31"/>
       <use x="63.623047" xlink:href="#DejaVuSans-31"/>
       <use x="127.246094" xlink:href="#DejaVuSans-20"/>
       <use x="159.033203" xlink:href="#DejaVuSans-31"/>
       <use x="222.65625" xlink:href="#DejaVuSans-30"/>
       <use x="286.279297" xlink:href="#DejaVuSans-3a"/>
       <use x="319.970703" xlink:href="#DejaVuSans-31"/>
       <use x="383.59375" xlink:href="#DejaVuSans-30"/>
      </g>
     </g>
    </g>
   </g>
   <g id="matplotlib.axis_2">
    <g id="ytick_1">
     <g id="line2d_10">
      <defs>
       <path d="M 0 0 
L -3.5 0 
" id="me60e9ac62e" style="stroke:#000000;stroke-width:0.8;"/>
      </defs>
      <g>
       <use style="stroke:#000000;stroke-width:0.8;" x="135" xlink:href="#me60e9ac62e" y="362.723748"/>
      </g>
     </g>
     <g id="text_10">
      <!-- −0.40 -->
      <g transform="translate(97.354687 366.522967)scale(0.1 -0.1)">
       <defs>
        <path d="M 678 2272 
L 4684 2272 
L 4684 1741 
L 678 1741 
L 678 2272 
z
" id="DejaVuSans-2212" transform="scale(0.015625)"/>
        <path d="M 684 794 
L 1344 794 
L 1344 0 
L 684 0 
L 684 794 
z
" id="DejaVuSans-2e" transform="scale(0.015625)"/>
       </defs>
       <use xlink:href="#DejaVuSans-2212"/>
       <use x="83.789062" xlink:href="#DejaVuSans-30"/>
       <use x="147.412109" xlink:href="#DejaVuSans-2e"/>
       <use x="179.199219" xlink:href="#DejaVuSans-34"/>
       <use x="242.822266" xlink:href="#DejaVuSans-30"/>
      </g>
     </g>
    </g>
    <g id="ytick_2">
     <g id="line2d_11">
      <g>
       <use style="stroke:#000000;stroke-width:0.8;" x="135" xlink:href="#me60e9ac62e" y="294.041169"/>
      </g>
     </g>
     <g id="text_11">
      <!-- −0.35 -->
      <g transform="translate(97.354687 297.840387)scale(0.1 -0.1)">
       <use xlink:href="#DejaVuSans-2212"/>
       <use x="83.789062" xlink:href="#DejaVuSans-30"/>
       <use x="147.412109" xlink:href="#DejaVuSans-2e"/>
       <use x="179.199219" xlink:href="#DejaVuSans-33"/>
       <use x="242.822266" xlink:href="#DejaVuSans-35"/>
      </g>
     </g>
    </g>
    <g id="ytick_3">
     <g id="line2d_12">
      <g>
       <use style="stroke:#000000;stroke-width:0.8;" x="135" xlink:href="#me60e9ac62e" y="225.358589"/>
      </g>
     </g>
     <g id="text_12">
      <!-- −0.30 -->
      <g transform="translate(97.354687 229.157807)scale(0.1 -0.1)">
       <use xlink:href="#DejaVuSans-2212"/>
       <use x="83.789062" xlink:href="#DejaVuSans-30"/>
       <use x="147.412109" xlink:href="#DejaVuSans-2e"/>
       <use x="179.199219" xlink:href="#DejaVuSans-33"/>
       <use x="242.822266" xlink:href="#DejaVuSans-30"/>
      </g>
     </g>
    </g>
    <g id="ytick_4">
     <g id="line2d_13">
      <g>
       <use style="stroke:#000000;stroke-width:0.8;" x="135" xlink:href="#me60e9ac62e" y="156.676009"/>
      </g>
     </g>
     <g id="text_13">
      <!-- −0.25 -->
      <g transform="translate(97.354687 160.475228)scale(0.1 -0.1)">
       <use xlink:href="#DejaVuSans-2212"/>
       <use x="83.789062" xlink:href="#DejaVuSans-30"/>
       <use x="147.412109" xlink:href="#DejaVuSans-2e"/>
       <use x="179.199219" xlink:href="#DejaVuSans-32"/>
       <use x="242.822266" xlink:href="#DejaVuSans-35"/>
      </g>
     </g>
    </g>
    <g id="ytick_5">
     <g id="line2d_14">
      <g>
       <use style="stroke:#000000;stroke-width:0.8;" x="135" xlink:href="#me60e9ac62e" y="87.993429"/>
      </g>
     </g>
     <g id="text_14">
      <!-- −0.20 -->
      <g transform="translate(97.354687 91.792648)scale(0.1 -0.1)">
       <use xlink:href="#DejaVuSans-2212"/>
       <use x="83.789062" xlink:href="#DejaVuSans-30"/>
       <use x="147.412109" xlink:href="#DejaVuSans-2e"/>
       <use x="179.199219" xlink:href="#DejaVuSans-32"/>
       <use x="242.822266" xlink:href="#DejaVuSans-30"/>
      </g>
     </g>
    </g>
   </g>
   <g id="line2d_15">
    <path clip-path="url(#pf84236917e)" d="M 173.045455 235.008679 
L 217.804813 226.59409 
L 262.564171 218.247248 
L 307.323529 207.820508 
L 352.082888 197.352587 
L 396.842246 186.881262 
L 441.601604 167.769958 
L 486.360963 148.752819 
" style="fill:none;stroke:#ffa500;stroke-linecap:square;stroke-width:1.5;"/>
    <defs>
     <path d="M 0 1.5 
C 0.397805 1.5 0.77937 1.341951 1.06066 1.06066 
C 1.341951 0.77937 1.5 0.397805 1.5 0 
C 1.5 -0.397805 1.341951 -0.77937 1.06066 -1.06066 
C 0.77937 -1.341951 0.397805 -1.5 0 -1.5 
C -0.397805 -1.5 -0.77937 -1.341951 -1.06066 -1.06066 
C -1.341951 -0.77937 -1.5 -0.397805 -1.5 0 
C -1.5 0.397805 -1.341951 0.77937 -1.06066 1.06066 
C -0.77937 1.341951 -0.397805 1.5 0 1.5 
z
" id="m4200c5918c" style="stroke:#ffa500;"/>
    </defs>
    <g clip-path="url(#pf84236917e)">
     <use style="fill:#ffa500;stroke:#ffa500;" x="173.045455" xlink:href="#m4200c5918c" y="235.008679"/>
     <use style="fill:#ffa500;stroke:#ffa500;" x="217.804813" xlink:href="#m4200c5918c" y="226.59409"/>
     <use style="fill:#ffa500;stroke:#ffa500;" x="262.564171" xlink:href="#m4200c5918c" y="218.247248"/>
     <use style="fill:#ffa500;stroke:#ffa500;" x="307.323529" xlink:href="#m4200c5918c" y="207.820508"/>
     <use style="fill:#ffa500;stroke:#ffa500;" x="352.082888" xlink:href="#m4200c5918c" y="197.352587"/>
     <use style="fill:#ffa500;stroke:#ffa500;" x="396.842246" xlink:href="#m4200c5918c" y="186.881262"/>
     <use style="fill:#ffa500;stroke:#ffa500;" x="441.601604" xlink:href="#m4200c5918c" y="167.769958"/>
     <use style="fill:#ffa500;stroke:#ffa500;" x="486.360963" xlink:href="#m4200c5918c" y="148.752819"/>
    </g>
   </g>
   <g id="line2d_16">
    <path clip-path="url(#pf84236917e)" d="M 217.804813 201.411946 
L 262.564171 193.238172 
L 307.323529 182.963556 
L 352.082888 172.650452 
L 396.842246 162.336519 
L 441.601604 143.418729 
L 486.360963 124.598288 
L 531.120321 105.736138 
" style="fill:none;stroke:#ffa500;stroke-linecap:square;stroke-width:1.5;"/>
    <g clip-path="url(#pf84236917e)">
     <use style="fill:#ffa500;stroke:#ffa500;" x="217.804813" xlink:href="#m4200c5918c" y="201.411946"/>
     <use style="fill:#ffa500;stroke:#ffa500;" x="262.564171" xlink:href="#m4200c5918c" y="193.238172"/>
     <use style="fill:#ffa500;stroke:#ffa500;" x="307.323529" xlink:href="#m4200c5918c" y="182.963556"/>
     <use style="fill:#ffa500;stroke:#ffa500;" x="352.082888" xlink:href="#m4200c5918c" y="172.650452"/>
     <use style="fill:#ffa500;stroke:#ffa500;" x="396.842246" xlink:href="#m4200c5918c" y="162.336519"/>
     <use style="fill:#ffa500;stroke:#ffa500;" x="441.601604" xlink:href="#m4200c5918c" y="143.418729"/>
     <use style="fill:#ffa500;stroke:#ffa500;" x="486.360963" xlink:href="#m4200c5918c" y="124.598288"/>
     <use style="fill:#ffa500;stroke:#ffa500;" x="531.120321" xlink:href="#m4200c5918c" y="105.736138"/>
    </g>
   </g>
   <g id="line2d_17">
    <path clip-path="url(#pf84236917e)" d="M 262.564171 198.184793 
L 307.323529 187.879885 
L 352.082888 177.535961 
L 396.842246 167.190703 
L 441.601604 148.234416 
L 486.360963 129.374857 
L 531.120321 110.473002 
L 575.879679 91.686165 
" style="fill:none;stroke:#ffa500;stroke-linecap:square;stroke-width:1.5;"/>
    <g clip-path="url(#pf84236917e)">
     <use style="fill:#ffa500;stroke:#ffa500;" x="262.564171" xlink:href="#m4200c5918c" y="198.184793"/>
     <use style="fill:#ffa500;stroke:#ffa500;" x="307.323529" xlink:href="#m4200c5918c" y="187.879885"/>
     <use style="fill:#ffa500;stroke:#ffa500;" x="352.082888" xlink:href="#m4200c5918c" y="177.535961"/>
     <use style="fill:#ffa500;stroke:#ffa500;" x="396.842246" xlink:href="#m4200c5918c" y="167.190703"/>
     <use style="fill:#ffa500;stroke:#ffa500;" x="441.601604" xlink:href="#m4200c5918c" y="148.234416"/>
     <use style="fill:#ffa500;stroke:#ffa500;" x="486.360963" xlink:href="#m4200c5918c" y="129.374857"/>
     <use style="fill:#ffa500;stroke:#ffa500;" x="531.120321" xlink:href="#m4200c5918c" y="110.473002"/>
     <use style="fill:#ffa500;stroke:#ffa500;" x="575.879679" xlink:href="#m4200c5918c" y="91.686165"/>
    </g>
   </g>
   <g id="line2d_18">
    <path clip-path="url(#pf84236917e)" d="M 307.323529 192.39911 
L 352.082888 182.026941 
L 396.842246 171.652973 
L 441.601604 152.661395 
L 486.360963 133.76597 
L 531.120321 114.827708 
L 575.879679 96.003925 
L 620.639037 77.290544 
" style="fill:none;stroke:#ffa500;stroke-linecap:square;stroke-width:1.5;"/>
    <g clip-path="url(#pf84236917e)">
     <use style="fill:#ffa500;stroke:#ffa500;" x="307.323529" xlink:href="#m4200c5918c" y="192.39911"/>
     <use style="fill:#ffa500;stroke:#ffa500;" x="352.082888" xlink:href="#m4200c5918c" y="182.026941"/>
     <use style="fill:#ffa500;stroke:#ffa500;" x="396.842246" xlink:href="#m4200c5918c" y="171.652973"/>
     <use style="fill:#ffa500;stroke:#ffa500;" x="441.601604" xlink:href="#m4200c5918c" y="152.661395"/>
     <use style="fill:#ffa500;stroke:#ffa500;" x="486.360963" xlink:href="#m4200c5918c" y="133.76597"/>
     <use style="fill:#ffa500;stroke:#ffa500;" x="531.120321" xlink:href="#m4200c5918c" y="114.827708"/>
     <use style="fill:#ffa500;stroke:#ffa500;" x="575.879679" xlink:href="#m4200c5918c" y="96.003925"/>
     <use style="fill:#ffa500;stroke:#ffa500;" x="620.639037" xlink:href="#m4200c5918c" y="77.290544"/>
    </g>
   </g>
   <g id="line2d_19">
    <path clip-path="url(#pf84236917e)" d="M 352.082888 190.470593 
L 396.842246 180.042868 
L 441.601604 160.985192 
L 486.360963 142.022578 
L 531.120321 123.016098 
L 575.879679 104.123077 
L 620.639037 85.339465 
L 665.398396 66.665455 
" style="fill:none;stroke:#ffa500;stroke-linecap:square;stroke-width:1.5;"/>
    <g clip-path="url(#pf84236917e)">
     <use style="fill:#ffa500;stroke:#ffa500;" x="352.082888" xlink:href="#m4200c5918c" y="190.470593"/>
     <use style="fill:#ffa500;stroke:#ffa500;" x="396.842246" xlink:href="#m4200c5918c" y="180.042868"/>
     <use style="fill:#ffa500;stroke:#ffa500;" x="441.601604" xlink:href="#m4200c5918c" y="160.985192"/>
     <use style="fill:#ffa500;stroke:#ffa500;" x="486.360963" xlink:href="#m4200c5918c" y="142.022578"/>
     <use style="fill:#ffa500;stroke:#ffa500;" x="531.120321" xlink:href="#m4200c5918c" y="123.016098"/>
     <use style="fill:#ffa500;stroke:#ffa500;" x="575.879679" xlink:href="#m4200c5918c" y="104.123077"/>
     <use style="fill:#ffa500;stroke:#ffa500;" x="620.639037" xlink:href="#m4200c5918c" y="85.339465"/>
     <use style="fill:#ffa500;stroke:#ffa500;" x="665.398396" xlink:href="#m4200c5918c" y="66.665455"/>
    </g>
   </g>
   <g id="line2d_20">
    <path clip-path="url(#pf84236917e)" d="M 396.842246 211.500637 
L 441.601604 192.198112 
L 486.360963 172.986459 
L 531.120321 153.726968 
L 575.879679 134.57699 
L 620.639037 115.532576 
L 665.398396 96.594044 
L 710.157754 77.776749 
" style="fill:none;stroke:#ffa500;stroke-linecap:square;stroke-width:1.5;"/>
    <g clip-path="url(#pf84236917e)">
     <use style="fill:#ffa500;stroke:#ffa500;" x="396.842246" xlink:href="#m4200c5918c" y="211.500637"/>
     <use style="fill:#ffa500;stroke:#ffa500;" x="441.601604" xlink:href="#m4200c5918c" y="192.198112"/>
     <use style="fill:#ffa500;stroke:#ffa500;" x="486.360963" xlink:href="#m4200c5918c" y="172.986459"/>
     <use style="fill:#ffa500;stroke:#ffa500;" x="531.120321" xlink:href="#m4200c5918c" y="153.726968"/>
     <use style="fill:#ffa500;stroke:#ffa500;" x="575.879679" xlink:href="#m4200c5918c" y="134.57699"/>
     <use style="fill:#ffa500;stroke:#ffa500;" x="620.639037" xlink:href="#m4200c5918c" y="115.532576"/>
     <use style="fill:#ffa500;stroke:#ffa500;" x="665.398396" xlink:href="#m4200c5918c" y="96.594044"/>
     <use style="fill:#ffa500;stroke:#ffa500;" x="710.157754" xlink:href="#m4200c5918c" y="77.776749"/>
    </g>
   </g>
   <g id="line2d_21">
    <path clip-path="url(#pf84236917e)" d="M 441.601604 298.747485 
L 486.360963 278.720868 
L 531.120321 258.631839 
L 575.879679 238.637672 
L 620.639037 218.734664 
L 665.398396 198.923474 
L 710.157754 179.220036 
L 754.917112 159.626317 
" style="fill:none;stroke:#ffa500;stroke-linecap:square;stroke-width:1.5;"/>
    <g clip-path="url(#pf84236917e)">
     <use style="fill:#ffa500;stroke:#ffa500;" x="441.601604" xlink:href="#m4200c5918c" y="298.747485"/>
     <use style="fill:#ffa500;stroke:#ffa500;" x="486.360963" xlink:href="#m4200c5918c" y="278.720868"/>
     <use style="fill:#ffa500;stroke:#ffa500;" x="531.120321" xlink:href="#m4200c5918c" y="258.631839"/>
     <use style="fill:#ffa500;stroke:#ffa500;" x="575.879679" xlink:href="#m4200c5918c" y="238.637672"/>
     <use style="fill:#ffa500;stroke:#ffa500;" x="620.639037" xlink:href="#m4200c5918c" y="218.734664"/>
     <use style="fill:#ffa500;stroke:#ffa500;" x="665.398396" xlink:href="#m4200c5918c" y="198.923474"/>
     <use style="fill:#ffa500;stroke:#ffa500;" x="710.157754" xlink:href="#m4200c5918c" y="179.220036"/>
     <use style="fill:#ffa500;stroke:#ffa500;" x="754.917112" xlink:href="#m4200c5918c" y="159.626317"/>
    </g>
   </g>
   <g id="line2d_22">
    <path clip-path="url(#pf84236917e)" d="M 486.360963 307.325664 
L 531.120321 287.021442 
L 575.879679 266.8079 
L 620.639037 246.681366 
L 665.398396 226.642555 
L 710.157754 206.70753 
L 754.917112 186.87835 
L 799.676471 167.165745 
" style="fill:none;stroke:#ffa500;stroke-linecap:square;stroke-width:1.5;"/>
    <g clip-path="url(#pf84236917e)">
     <use style="fill:#ffa500;stroke:#ffa500;" x="486.360963" xlink:href="#m4200c5918c" y="307.325664"/>
     <use style="fill:#ffa500;stroke:#ffa500;" x="531.120321" xlink:href="#m4200c5918c" y="287.021442"/>
     <use style="fill:#ffa500;stroke:#ffa500;" x="575.879679" xlink:href="#m4200c5918c" y="266.8079"/>
     <use style="fill:#ffa500;stroke:#ffa500;" x="620.639037" xlink:href="#m4200c5918c" y="246.681366"/>
     <use style="fill:#ffa500;stroke:#ffa500;" x="665.398396" xlink:href="#m4200c5918c" y="226.642555"/>
     <use style="fill:#ffa500;stroke:#ffa500;" x="710.157754" xlink:href="#m4200c5918c" y="206.70753"/>
     <use style="fill:#ffa500;stroke:#ffa500;" x="754.917112" xlink:href="#m4200c5918c" y="186.87835"/>
     <use style="fill:#ffa500;stroke:#ffa500;" x="799.676471" xlink:href="#m4200c5918c" y="167.165745"/>
    </g>
   </g>
   <g id="line2d_23">
    <path clip-path="url(#pf84236917e)" d="M 531.120321 312.940944 
L 575.879679 292.530473 
L 620.639037 272.203161 
L 665.398396 251.959764 
L 710.157754 231.81644 
L 754.917112 211.775323 
L 799.676471 191.847254 
L 844.435829 175.065948 
" style="fill:none;stroke:#ffa500;stroke-linecap:square;stroke-width:1.5;"/>
    <g clip-path="url(#pf84236917e)">
     <use style="fill:#ffa500;stroke:#ffa500;" x="531.120321" xlink:href="#m4200c5918c" y="312.940944"/>
     <use style="fill:#ffa500;stroke:#ffa500;" x="575.879679" xlink:href="#m4200c5918c" y="292.530473"/>
     <use style="fill:#ffa500;stroke:#ffa500;" x="620.639037" xlink:href="#m4200c5918c" y="272.203161"/>
     <use style="fill:#ffa500;stroke:#ffa500;" x="665.398396" xlink:href="#m4200c5918c" y="251.959764"/>
     <use style="fill:#ffa500;stroke:#ffa500;" x="710.157754" xlink:href="#m4200c5918c" y="231.81644"/>
     <use style="fill:#ffa500;stroke:#ffa500;" x="754.917112" xlink:href="#m4200c5918c" y="211.775323"/>
     <use style="fill:#ffa500;stroke:#ffa500;" x="799.676471" xlink:href="#m4200c5918c" y="191.847254"/>
     <use style="fill:#ffa500;stroke:#ffa500;" x="844.435829" xlink:href="#m4200c5918c" y="175.065948"/>
    </g>
   </g>
   <g id="line2d_24">
    <path clip-path="url(#pf84236917e)" d="M 575.879679 317.32541 
L 620.639037 296.80754 
L 665.398396 276.369864 
L 710.157754 256.028623 
L 754.917112 235.786003 
L 799.676471 215.652942 
L 844.435829 198.705062 
L 889.195187 181.851245 
" style="fill:none;stroke:#ffa500;stroke-linecap:square;stroke-width:1.5;"/>
    <g clip-path="url(#pf84236917e)">
     <use style="fill:#ffa500;stroke:#ffa500;" x="575.879679" xlink:href="#m4200c5918c" y="317.32541"/>
     <use style="fill:#ffa500;stroke:#ffa500;" x="620.639037" xlink:href="#m4200c5918c" y="296.80754"/>
     <use style="fill:#ffa500;stroke:#ffa500;" x="665.398396" xlink:href="#m4200c5918c" y="276.369864"/>
     <use style="fill:#ffa500;stroke:#ffa500;" x="710.157754" xlink:href="#m4200c5918c" y="256.028623"/>
     <use style="fill:#ffa500;stroke:#ffa500;" x="754.917112" xlink:href="#m4200c5918c" y="235.786003"/>
     <use style="fill:#ffa500;stroke:#ffa500;" x="799.676471" xlink:href="#m4200c5918c" y="215.652942"/>
     <use style="fill:#ffa500;stroke:#ffa500;" x="844.435829" xlink:href="#m4200c5918c" y="198.705062"/>
     <use style="fill:#ffa500;stroke:#ffa500;" x="889.195187" xlink:href="#m4200c5918c" y="181.851245"/>
    </g>
   </g>
   <g id="line2d_25">
    <path clip-path="url(#pf84236917e)" d="M 173.045455 209.655889 
L 217.804813 206.392994 
L 262.564171 202.731775 
L 307.323529 200.895638 
L 352.082888 222.127313 
L 396.842246 318.84975 
L 441.601604 327.563364 
L 486.360963 333.438236 
L 531.120321 337.922696 
L 575.879679 342.690635 
L 620.639037 350.295079 
L 665.398396 358.306967 
L 710.157754 363.174545 
L 754.917112 337.664686 
L 799.676471 296.852477 
L 844.435829 294.773434 
L 889.195187 294.773434 
L 933.954545 288.136642 
" style="fill:none;stroke:#00008b;stroke-linecap:square;stroke-width:1.5;"/>
    <defs>
     <path d="M 0 3 
C 0.795609 3 1.55874 2.683901 2.12132 2.12132 
C 2.683901 1.55874 3 0.795609 3 0 
C 3 -0.795609 2.683901 -1.55874 2.12132 -2.12132 
C 1.55874 -2.683901 0.795609 -3 0 -3 
C -0.795609 -3 -1.55874 -2.683901 -2.12132 -2.12132 
C -2.683901 -1.55874 -3 -0.795609 -3 0 
C -3 0.795609 -2.683901 1.55874 -2.12132 2.12132 
C -1.55874 2.683901 -0.795609 3 0 3 
z
" id="ma66b1ce460" style="stroke:#00008b;"/>
    </defs>
    <g clip-path="url(#pf84236917e)">
     <use style="fill:#00008b;stroke:#00008b;" x="173.045455" xlink:href="#ma66b1ce460" y="209.655889"/>
     <use style="fill:#00008b;stroke:#00008b;" x="217.804813" xlink:href="#ma66b1ce460" y="206.392994"/>
     <use style="fill:#00008b;stroke:#00008b;" x="262.564171" xlink:href="#ma66b1ce460" y="202.731775"/>
     <use style="fill:#00008b;stroke:#00008b;" x="307.323529" xlink:href="#ma66b1ce460" y="200.895638"/>
     <use style="fill:#00008b;stroke:#00008b;" x="352.082888" xlink:href="#ma66b1ce460" y="222.127313"/>
     <use style="fill:#00008b;stroke:#00008b;" x="396.842246" xlink:href="#ma66b1ce460" y="318.84975"/>
     <use style="fill:#00008b;stroke:#00008b;" x="441.601604" xlink:href="#ma66b1ce460" y="327.563364"/>
     <use style="fill:#00008b;stroke:#00008b;" x="486.360963" xlink:href="#ma66b1ce460" y="333.438236"/>
     <use style="fill:#00008b;stroke:#00008b;" x="531.120321" xlink:href="#ma66b1ce460" y="337.922696"/>
     <use style="fill:#00008b;stroke:#00008b;" x="575.879679" xlink:href="#ma66b1ce460" y="342.690635"/>
     <use style="fill:#00008b;stroke:#00008b;" x="620.639037" xlink:href="#ma66b1ce460" y="350.295079"/>
     <use style="fill:#00008b;stroke:#00008b;" x="665.398396" xlink:href="#ma66b1ce460" y="358.306967"/>
     <use style="fill:#00008b;stroke:#00008b;" x="710.157754" xlink:href="#ma66b1ce460" y="363.174545"/>
     <use style="fill:#00008b;stroke:#00008b;" x="754.917112" xlink:href="#ma66b1ce460" y="337.664686"/>
     <use style="fill:#00008b;stroke:#00008b;" x="799.676471" xlink:href="#ma66b1ce460" y="296.852477"/>
     <use style="fill:#00008b;stroke:#00008b;" x="844.435829" xlink:href="#ma66b1ce460" y="294.773434"/>
     <use style="fill:#00008b;stroke:#00008b;" x="889.195187" xlink:href="#ma66b1ce460" y="294.773434"/>
     <use style="fill:#00008b;stroke:#00008b;" x="933.954545" xlink:href="#ma66b1ce460" y="288.136642"/>
    </g>
   </g>
   <g id="patch_3">
    <path d="M 135 378 
L 135 51.84 
" style="fill:none;stroke:#000000;stroke-linecap:square;stroke-linejoin:miter;stroke-width:0.8;"/>
   </g>
   <g id="patch_4">
    <path d="M 972 378 
L 972 51.84 
" style="fill:none;stroke:#000000;stroke-linecap:square;stroke-linejoin:miter;stroke-width:0.8;"/>
   </g>
   <g id="patch_5">
    <path d="M 135 378 
L 972 378 
" style="fill:none;stroke:#000000;stroke-linecap:square;stroke-linejoin:miter;stroke-width:0.8;"/>
   </g>
   <g id="patch_6">
    <path d="M 135 51.84 
L 972 51.84 
" style="fill:none;stroke:#000000;stroke-linecap:square;stroke-linejoin:miter;stroke-width:0.8;"/>
   </g>
   <g id="text_15">
    <!-- Prediction over 8 steps -->
    <g transform="translate(484.6725 45.84)scale(0.12 -0.12)">
     <defs>
      <path d="M 1259 4147 
L 1259 2394 
L 2053 2394 
Q 2494 2394 2734 2622 
Q 2975 2850 2975 3272 
Q 2975 3691 2734 3919 
Q 2494 4147 2053 4147 
L 1259 4147 
z
M 628 4666 
L 2053 4666 
Q 2838 4666 3239 4311 
Q 3641 3956 3641 3272 
Q 3641 2581 3239 2228 
Q 2838 1875 2053 1875 
L 1259 1875 
L 1259 0 
L 628 0 
L 628 4666 
z
" id="DejaVuSans-50" transform="scale(0.015625)"/>
      <path d="M 2631 2963 
Q 2534 3019 2420 3045 
Q 2306 3072 2169 3072 
Q 1681 3072 1420 2755 
Q 1159 2438 1159 1844 
L 1159 0 
L 581 0 
L 581 3500 
L 1159 3500 
L 1159 2956 
Q 1341 3275 1631 3429 
Q 1922 3584 2338 3584 
Q 2397 3584 2469 3576 
Q 2541 3569 2628 3553 
L 2631 2963 
z
" id="DejaVuSans-72" transform="scale(0.015625)"/>
      <path d="M 3597 1894 
L 3597 1613 
L 953 1613 
Q 991 1019 1311 708 
Q 1631 397 2203 397 
Q 2534 397 2845 478 
Q 3156 559 3463 722 
L 3463 178 
Q 3153 47 2828 -22 
Q 2503 -91 2169 -91 
Q 1331 -91 842 396 
Q 353 884 353 1716 
Q 353 2575 817 3079 
Q 1281 3584 2069 3584 
Q 2775 3584 3186 3129 
Q 3597 2675 3597 1894 
z
M 3022 2063 
Q 3016 2534 2758 2815 
Q 2500 3097 2075 3097 
Q 1594 3097 1305 2825 
Q 1016 2553 972 2059 
L 3022 2063 
z
" id="DejaVuSans-65" transform="scale(0.015625)"/>
      <path d="M 2906 2969 
L 2906 4863 
L 3481 4863 
L 3481 0 
L 2906 0 
L 2906 525 
Q 2725 213 2448 61 
Q 2172 -91 1784 -91 
Q 1150 -91 751 415 
Q 353 922 353 1747 
Q 353 2572 751 3078 
Q 1150 3584 1784 3584 
Q 2172 3584 2448 3432 
Q 2725 3281 2906 2969 
z
M 947 1747 
Q 947 1113 1208 752 
Q 1469 391 1925 391 
Q 2381 391 2643 752 
Q 2906 1113 2906 1747 
Q 2906 2381 2643 2742 
Q 2381 3103 1925 3103 
Q 1469 3103 1208 2742 
Q 947 2381 947 1747 
z
" id="DejaVuSans-64" transform="scale(0.015625)"/>
      <path d="M 603 3500 
L 1178 3500 
L 1178 0 
L 603 0 
L 603 3500 
z
M 603 4863 
L 1178 4863 
L 1178 4134 
L 603 4134 
L 603 4863 
z
" id="DejaVuSans-69" transform="scale(0.015625)"/>
      <path d="M 3122 3366 
L 3122 2828 
Q 2878 2963 2633 3030 
Q 2388 3097 2138 3097 
Q 1578 3097 1268 2742 
Q 959 2388 959 1747 
Q 959 1106 1268 751 
Q 1578 397 2138 397 
Q 2388 397 2633 464 
Q 2878 531 3122 666 
L 3122 134 
Q 2881 22 2623 -34 
Q 2366 -91 2075 -91 
Q 1284 -91 818 406 
Q 353 903 353 1747 
Q 353 2603 823 3093 
Q 1294 3584 2113 3584 
Q 2378 3584 2631 3529 
Q 2884 3475 3122 3366 
z
" id="DejaVuSans-63" transform="scale(0.015625)"/>
      <path d="M 1172 4494 
L 1172 3500 
L 2356 3500 
L 2356 3053 
L 1172 3053 
L 1172 1153 
Q 1172 725 1289 603 
Q 1406 481 1766 481 
L 2356 481 
L 2356 0 
L 1766 0 
Q 1100 0 847 248 
Q 594 497 594 1153 
L 594 3053 
L 172 3053 
L 172 3500 
L 594 3500 
L 594 4494 
L 1172 4494 
z
" id="DejaVuSans-74" transform="scale(0.015625)"/>
      <path d="M 1959 3097 
Q 1497 3097 1228 2736 
Q 959 2375 959 1747 
Q 959 1119 1226 758 
Q 1494 397 1959 397 
Q 2419 397 2687 759 
Q 2956 1122 2956 1747 
Q 2956 2369 2687 2733 
Q 2419 3097 1959 3097 
z
M 1959 3584 
Q 2709 3584 3137 3096 
Q 3566 2609 3566 1747 
Q 3566 888 3137 398 
Q 2709 -91 1959 -91 
Q 1206 -91 779 398 
Q 353 888 353 1747 
Q 353 2609 779 3096 
Q 1206 3584 1959 3584 
z
" id="DejaVuSans-6f" transform="scale(0.015625)"/>
      <path d="M 3513 2113 
L 3513 0 
L 2938 0 
L 2938 2094 
Q 2938 2591 2744 2837 
Q 2550 3084 2163 3084 
Q 1697 3084 1428 2787 
Q 1159 2491 1159 1978 
L 1159 0 
L 581 0 
L 581 3500 
L 1159 3500 
L 1159 2956 
Q 1366 3272 1645 3428 
Q 1925 3584 2291 3584 
Q 2894 3584 3203 3211 
Q 3513 2838 3513 2113 
z
" id="DejaVuSans-6e" transform="scale(0.015625)"/>
      <path d="M 191 3500 
L 800 3500 
L 1894 563 
L 2988 3500 
L 3597 3500 
L 2284 0 
L 1503 0 
L 191 3500 
z
" id="DejaVuSans-76" transform="scale(0.015625)"/>
      <path d="M 2834 3397 
L 2834 2853 
Q 2591 2978 2328 3040 
Q 2066 3103 1784 3103 
Q 1356 3103 1142 2972 
Q 928 2841 928 2578 
Q 928 2378 1081 2264 
Q 1234 2150 1697 2047 
L 1894 2003 
Q 2506 1872 2764 1633 
Q 3022 1394 3022 966 
Q 3022 478 2636 193 
Q 2250 -91 1575 -91 
Q 1294 -91 989 -36 
Q 684 19 347 128 
L 347 722 
Q 666 556 975 473 
Q 1284 391 1588 391 
Q 1994 391 2212 530 
Q 2431 669 2431 922 
Q 2431 1156 2273 1281 
Q 2116 1406 1581 1522 
L 1381 1569 
Q 847 1681 609 1914 
Q 372 2147 372 2553 
Q 372 3047 722 3315 
Q 1072 3584 1716 3584 
Q 2034 3584 2315 3537 
Q 2597 3491 2834 3397 
z
" id="DejaVuSans-73" transform="scale(0.015625)"/>
      <path d="M 1159 525 
L 1159 -1331 
L 581 -1331 
L 581 3500 
L 1159 3500 
L 1159 2969 
Q 1341 3281 1617 3432 
Q 1894 3584 2278 3584 
Q 2916 3584 3314 3078 
Q 3713 2572 3713 1747 
Q 3713 922 3314 415 
Q 2916 -91 2278 -91 
Q 1894 -91 1617 61 
Q 1341 213 1159 525 
z
M 3116 1747 
Q 3116 2381 2855 2742 
Q 2594 3103 2138 3103 
Q 1681 3103 1420 2742 
Q 1159 2381 1159 1747 
Q 1159 1113 1420 752 
Q 1681 391 2138 391 
Q 2594 391 2855 752 
Q 3116 1113 3116 1747 
z
" id="DejaVuSans-70" transform="scale(0.015625)"/>
     </defs>
     <use xlink:href="#DejaVuSans-50"/>
     <use x="58.552734" xlink:href="#DejaVuSans-72"/>
     <use x="97.416016" xlink:href="#DejaVuSans-65"/>
     <use x="158.939453" xlink:href="#DejaVuSans-64"/>
     <use x="222.416016" xlink:href="#DejaVuSans-69"/>
     <use x="250.199219" xlink:href="#DejaVuSans-63"/>
     <use x="305.179688" xlink:href="#DejaVuSans-74"/>
     <use x="344.388672" xlink:href="#DejaVuSans-69"/>
     <use x="372.171875" xlink:href="#DejaVuSans-6f"/>
     <use x="433.353516" xlink:href="#DejaVuSans-6e"/>
     <use x="496.732422" xlink:href="#DejaVuSans-20"/>
     <use x="528.519531" xlink:href="#DejaVuSans-6f"/>
     <use x="589.701172" xlink:href="#DejaVuSans-76"/>
     <use x="648.880859" xlink:href="#DejaVuSans-65"/>
     <use x="710.404297" xlink:href="#DejaVuSans-72"/>
     <use x="751.517578" xlink:href="#DejaVuSans-20"/>
     <use x="783.304688" xlink:href="#DejaVuSans-38"/>
     <use x="846.927734" xlink:href="#DejaVuSans-20"/>
     <use x="878.714844" xlink:href="#DejaVuSans-73"/>
     <use x="930.814453" xlink:href="#DejaVuSans-74"/>
     <use x="970.023438" xlink:href="#DejaVuSans-65"/>
     <use x="1031.546875" xlink:href="#DejaVuSans-70"/>
     <use x="1095.023438" xlink:href="#DejaVuSans-73"/>
    </g>
   </g>
  </g>
 </g>
 <defs>
  <clipPath id="pf84236917e">
   <rect height="326.16" width="837" x="135" y="51.84"/>
  </clipPath>
 </defs>
</svg>
